<svg xmlns="http://www.w3.org/2000/svg" viewBox="0 0 1200 800" width="1200" height="800" role="img" aria-label="Shortest path along transfers, ACC-365386 to ACC-580664, 5 hops">
<rect width="1200" height="800" fill="#F5F5F5"/>
<g stroke="#808080" stroke-width="1" stroke-opacity="0.5" stroke-linecap="round">
<line x1="731.7" y1="103.3" x2="465.6" y2="125.6"/>
<line x1="731.7" y1="103.3" x2="837.7" y2="292.5"/>
<line x1="731.7" y1="103.3" x2="570" y2="302.9"/>
<line x1="465.6" y1="125.6" x2="323.4" y2="330.9"/>
<line x1="465.6" y1="125.6" x2="672" y2="64.6"/>
<line x1="465.6" y1="125.6" x2="570" y2="302.9"/>
<line x1="323.4" y1="330.9" x2="418.9" y2="541"/>
<line x1="323.4" y1="330.9" x2="443.2" y2="56"/>
<line x1="323.4" y1="330.9" x2="570" y2="302.9"/>
<line x1="418.9" y1="541" x2="716.1" y2="519.7"/>
<line x1="418.9" y1="541" x2="309.2" y2="263"/>
<line x1="716.1" y1="519.7" x2="837.7" y2="292.5"/>
<line x1="716.1" y1="519.7" x2="461.3" y2="479.4"/>
<line x1="716.1" y1="519.7" x2="570" y2="302.9"/>
<line x1="837.7" y1="292.5" x2="672" y2="64.6"/>
<line x1="837.7" y1="292.5" x2="652.5" y2="552"/>
<line x1="837.7" y1="292.5" x2="570" y2="302.9"/>
<line x1="672" y1="64.6" x2="443.2" y2="56"/>
<line x1="672" y1="64.6" x2="762.8" y2="320.5"/>
<line x1="443.2" y1="56" x2="309.2" y2="263"/>
<line x1="443.2" y1="56" x2="731.7" y2="103.3"/>
<line x1="443.2" y1="56" x2="570" y2="302.9"/>
<line x1="309.2" y1="263" x2="461.3" y2="479.4"/>
<line x1="309.2" y1="263" x2="465.6" y2="125.6"/>
<line x1="461.3" y1="479.4" x2="652.5" y2="552"/>
<line x1="461.3" y1="479.4" x2="323.4" y2="330.9"/>
<line x1="461.3" y1="479.4" x2="570" y2="302.9"/>
<line x1="652.5" y1="552" x2="762.8" y2="320.5"/>
<line x1="652.5" y1="552" x2="418.9" y2="541"/>
<line x1="762.8" y1="320.5" x2="731.7" y2="103.3"/>
<line x1="762.8" y1="320.5" x2="716.1" y2="519.7"/>
<line x1="762.8" y1="320.5" x2="570" y2="302.9"/>
<line x1="890.8" y1="411.6" x2="570" y2="302.9"/>
</g>
<g stroke="#1A1A1A" stroke-width="3" stroke-linecap="round"><line x1="731.7" y1="103.3" x2="465.6" y2="125.6"/><line x1="465.6" y1="125.6" x2="323.4" y2="330.9"/><line x1="323.4" y1="330.9" x2="418.9" y2="541"/><line x1="418.9" y1="541" x2="716.1" y2="519.7"/><line x1="716.1" y1="519.7" x2="461.3" y2="479.4"/></g>
<g>
<circle cx="570" cy="302.9" r="9" fill="#808080"/>
<circle cx="672" cy="64.6" r="7" fill="#808080"/>
<circle cx="309.2" cy="263" r="7" fill="#808080"/>
<circle cx="652.5" cy="552" r="7" fill="#808080"/>
<circle cx="418.9" cy="541" r="7" fill="#808080"/>
<circle cx="418.9" cy="541" r="8" fill="none" stroke="#FFFFFF" stroke-width="2"/><circle cx="418.9" cy="541" r="10" fill="none" stroke="#1A1A1A" stroke-width="2"/>
<polygon points="837.7,282.3 847.8,292.5 837.7,302.6 827.5,292.5" fill="#D55E00"/>
<polygon points="443.2,45.9 453.3,56 443.2,66.2 433,56" fill="#D55E00"/>
<polygon points="762.8,310.4 772.9,320.5 762.8,330.7 752.6,320.5" fill="#D55E00"/>
<polygon points="890.8,401.5 900.9,411.6 890.8,421.8 880.6,411.6" fill="#D55E00"/>
<polygon points="731.7,93.2 741.9,103.3 731.7,113.5 721.6,103.3" fill="#D55E00"/>
<circle cx="731.7" cy="103.3" r="11.2" fill="none" stroke="#FFFFFF" stroke-width="2"/><circle cx="731.7" cy="103.3" r="13.2" fill="none" stroke="#1A1A1A" stroke-width="2"/>
<polygon points="465.6,115.5 475.7,125.6 465.6,135.8 455.4,125.6" fill="#D55E00"/>
<circle cx="465.6" cy="125.6" r="11.2" fill="none" stroke="#FFFFFF" stroke-width="2"/><circle cx="465.6" cy="125.6" r="13.2" fill="none" stroke="#1A1A1A" stroke-width="2"/>
<polygon points="323.4,320.7 333.5,330.9 323.4,341 313.2,330.9" fill="#D55E00"/>
<circle cx="323.4" cy="330.9" r="11.2" fill="none" stroke="#FFFFFF" stroke-width="2"/><circle cx="323.4" cy="330.9" r="13.2" fill="none" stroke="#1A1A1A" stroke-width="2"/>
<polygon points="716.1,509.5 726.3,519.7 716.1,529.8 706,519.7" fill="#D55E00"/>
<circle cx="716.1" cy="519.7" r="11.2" fill="none" stroke="#FFFFFF" stroke-width="2"/><circle cx="716.1" cy="519.7" r="13.2" fill="none" stroke="#1A1A1A" stroke-width="2"/>
<polygon points="461.3,469.2 471.4,479.4 461.3,489.5 451.1,479.4" fill="#D55E00"/>
<circle cx="461.3" cy="479.4" r="11.2" fill="none" stroke="#FFFFFF" stroke-width="2"/><circle cx="461.3" cy="479.4" r="13.2" fill="none" stroke="#1A1A1A" stroke-width="2"/>
</g>
<g font-family="Inter Variable, Inter, system-ui, sans-serif" font-size="12" fill="#1A1A1A" stroke="#F5F5F5" stroke-width="3" stroke-linejoin="round" paint-order="stroke">
<text x="745.9" y="107.3">ACC-365386</text>
<text x="479.7" y="129.6">ACC-274887</text>
<text x="337.5" y="334.9">ACC-640034</text>
<text x="433" y="545">ACC-177247</text>
<text x="730.3" y="523.7">ACC-405902</text>
<text x="475.4" y="483.4">ACC-580664</text>
<text x="851.8" y="296.5">ACC-898028</text>
<text x="587" y="306.9">ACC-465572</text>
<text x="686.1" y="68.6">ACC-140044</text>
<text x="457.3" y="60">ACC-796219</text>
<text x="323.4" y="267">ACC-245709</text>
<text x="666.6" y="556">ACC-556231</text>
<text x="776.9" y="324.5">ACC-228299</text>
<text x="904.9" y="415.6">ACC-523284</text>
</g></svg>