<svg xmlns="http://www.w3.org/2000/svg" viewBox="0 0 1200 800" width="1200" height="800" role="img" aria-label="Les Miserables after three filter steps, Valjean and his neighbors selected">
<rect width="1200" height="800" fill="#F5F5F5"/>
<g stroke="#808080" stroke-width="1" stroke-opacity="0.55" stroke-linecap="round">
<line x1="592.5" y1="119.9" x2="587.2" y2="166.7"/>
<line x1="561.6" y1="132.6" x2="587.2" y2="166.7"/>
<line x1="561.6" y1="132.6" x2="592.5" y2="119.9"/>
<line x1="617.9" y1="106.3" x2="587.2" y2="166.7"/>
<line x1="617.9" y1="106.3" x2="592.5" y2="119.9"/>
<line x1="617.9" y1="106.3" x2="561.6" y2="132.6"/>
<line x1="546.4" y1="112.1" x2="587.2" y2="166.7"/>
<line x1="546.4" y1="112.1" x2="592.5" y2="119.9"/>
<line x1="546.4" y1="112.1" x2="561.6" y2="132.6"/>
<line x1="546.4" y1="112.1" x2="617.9" y2="106.3"/>
<line x1="567" y1="90.8" x2="587.2" y2="166.7"/>
<line x1="567" y1="90.8" x2="592.5" y2="119.9"/>
<line x1="567" y1="90.8" x2="561.6" y2="132.6"/>
<line x1="567" y1="90.8" x2="617.9" y2="106.3"/>
<line x1="567" y1="90.8" x2="546.4" y2="112.1"/>
<line x1="595.8" y1="85.6" x2="587.2" y2="166.7"/>
<line x1="595.8" y1="85.6" x2="592.5" y2="119.9"/>
<line x1="595.8" y1="85.6" x2="561.6" y2="132.6"/>
<line x1="595.8" y1="85.6" x2="617.9" y2="106.3"/>
<line x1="595.8" y1="85.6" x2="546.4" y2="112.1"/>
<line x1="595.8" y1="85.6" x2="567" y2="90.8"/>
<line x1="626.4" y1="181" x2="587.2" y2="166.7"/>
<line x1="626.4" y1="181" x2="592.5" y2="119.9"/>
<line x1="626.4" y1="181" x2="561.6" y2="132.6"/>
<line x1="626.4" y1="181" x2="617.9" y2="106.3"/>
<line x1="626.4" y1="181" x2="546.4" y2="112.1"/>
<line x1="626.4" y1="181" x2="567" y2="90.8"/>
<line x1="626.4" y1="181" x2="595.8" y2="85.6"/>
<line x1="626.4" y1="181" x2="698.7" y2="394.3"/>
<line x1="785.3" y1="352.8" x2="626.4" y2="181"/>
<line x1="785.3" y1="352.8" x2="698.7" y2="394.3"/>
<line x1="789.4" y1="393.1" x2="785.3" y2="352.8"/>
<line x1="789.4" y1="393.1" x2="626.4" y2="181"/>
<line x1="789.4" y1="393.1" x2="698.7" y2="394.3"/>
<line x1="587.1" y1="378.9" x2="785.3" y2="352.8"/>
<line x1="587.1" y1="378.9" x2="698.7" y2="394.3"/>
<line x1="587.1" y1="378.9" x2="587.2" y2="166.7"/>
<line x1="587.1" y1="378.9" x2="789.4" y2="393.1"/>
<line x1="755.4" y1="392" x2="698.7" y2="394.3"/>
<line x1="755.4" y1="392" x2="626.4" y2="181"/>
<line x1="755.4" y1="392" x2="789.4" y2="393.1"/>
<line x1="755.4" y1="392" x2="785.3" y2="352.8"/>
<line x1="755.4" y1="392" x2="587.1" y2="378.9"/>
<line x1="642.6" y1="349.5" x2="626.4" y2="181"/>
<line x1="642.6" y1="349.5" x2="755.4" y2="392"/>
<line x1="642.6" y1="349.5" x2="698.7" y2="394.3"/>
<line x1="651.4" y1="400" x2="698.7" y2="394.3"/>
<line x1="651.4" y1="400" x2="642.6" y2="349.5"/>
<line x1="630.5" y1="375.6" x2="698.7" y2="394.3"/>
<line x1="630.5" y1="375.6" x2="651.4" y2="400"/>
<line x1="630.5" y1="375.6" x2="642.6" y2="349.5"/>
<line x1="605.3" y1="385.3" x2="651.4" y2="400"/>
<line x1="605.3" y1="385.3" x2="630.5" y2="375.6"/>
<line x1="605.3" y1="385.3" x2="698.7" y2="394.3"/>
<line x1="605.3" y1="385.3" x2="642.6" y2="349.5"/>
<line x1="635.2" y1="425.1" x2="651.4" y2="400"/>
<line x1="635.2" y1="425.1" x2="630.5" y2="375.6"/>
<line x1="635.2" y1="425.1" x2="605.3" y2="385.3"/>
<line x1="635.2" y1="425.1" x2="698.7" y2="394.3"/>
<line x1="635.2" y1="425.1" x2="642.6" y2="349.5"/>
<line x1="606.8" y1="415.6" x2="651.4" y2="400"/>
<line x1="606.8" y1="415.6" x2="630.5" y2="375.6"/>
<line x1="606.8" y1="415.6" x2="605.3" y2="385.3"/>
<line x1="606.8" y1="415.6" x2="635.2" y2="425.1"/>
<line x1="606.8" y1="415.6" x2="698.7" y2="394.3"/>
<line x1="606.8" y1="415.6" x2="642.6" y2="349.5"/>
<line x1="848" y1="423.2" x2="785.3" y2="352.8"/>
<line x1="848" y1="423.2" x2="789.4" y2="393.1"/>
<line x1="557.8" y1="457.8" x2="587.1" y2="378.9"/>
<line x1="557.8" y1="457.8" x2="698.7" y2="394.3"/>
<line x1="530.1" y1="404.4" x2="557.8" y2="457.8"/>
<line x1="530.1" y1="404.4" x2="587.1" y2="378.9"/>
<line x1="530.1" y1="404.4" x2="698.7" y2="394.3"/>
<line x1="820.2" y1="407.9" x2="789.4" y2="393.1"/>
<line x1="820.2" y1="407.9" x2="698.7" y2="394.3"/>
<line x1="820.2" y1="407.9" x2="785.3" y2="352.8"/>
<line x1="820.2" y1="407.9" x2="755.4" y2="392"/>
<line x1="820.2" y1="407.9" x2="848" y2="423.2"/>
<line x1="831.5" y1="385" x2="789.4" y2="393.1"/>
<line x1="831.5" y1="385" x2="820.2" y2="407.9"/>
<line x1="831.5" y1="385" x2="698.7" y2="394.3"/>
<line x1="831.5" y1="385" x2="785.3" y2="352.8"/>
<line x1="831.5" y1="385" x2="755.4" y2="392"/>
<line x1="831.5" y1="385" x2="848" y2="423.2"/>
<line x1="793.3" y1="428.6" x2="789.4" y2="393.1"/>
<line x1="793.3" y1="428.6" x2="831.5" y2="385"/>
<line x1="793.3" y1="428.6" x2="820.2" y2="407.9"/>
<line x1="793.3" y1="428.6" x2="698.7" y2="394.3"/>
<line x1="793.3" y1="428.6" x2="785.3" y2="352.8"/>
<line x1="793.3" y1="428.6" x2="755.4" y2="392"/>
<line x1="793.3" y1="428.6" x2="848" y2="423.2"/>
<line x1="815.6" y1="446.3" x2="755.4" y2="392"/>
<line x1="815.6" y1="446.3" x2="831.5" y2="385"/>
<line x1="815.6" y1="446.3" x2="820.2" y2="407.9"/>
<line x1="815.6" y1="446.3" x2="793.3" y2="428.6"/>
<line x1="815.6" y1="446.3" x2="698.7" y2="394.3"/>
<line x1="815.6" y1="446.3" x2="848" y2="423.2"/>
<line x1="815.6" y1="446.3" x2="789.4" y2="393.1"/>
<line x1="866.6" y1="438.6" x2="831.5" y2="385"/>
<line x1="866.6" y1="438.6" x2="820.2" y2="407.9"/>
<line x1="866.6" y1="438.6" x2="789.4" y2="393.1"/>
<line x1="866.6" y1="438.6" x2="848" y2="423.2"/>
<line x1="866.6" y1="438.6" x2="793.3" y2="428.6"/>
<line x1="866.6" y1="438.6" x2="815.6" y2="446.3"/>
</g>
<g>
<circle cx="587.2" cy="166.7" r="10" fill="#D55E00"/>
<circle cx="587.2" cy="166.7" r="10.7" fill="none" stroke="#8A8A8A" stroke-width="1.3"/>
<circle cx="592.5" cy="119.9" r="9.3" fill="#D55E00"/>
<circle cx="592.5" cy="119.9" r="9.9" fill="none" stroke="#8A8A8A" stroke-width="1.3"/>
<circle cx="561.6" cy="132.6" r="9.3" fill="#D55E00"/>
<circle cx="561.6" cy="132.6" r="9.9" fill="none" stroke="#8A8A8A" stroke-width="1.3"/>
<circle cx="617.9" cy="106.3" r="9.3" fill="#D55E00"/>
<circle cx="617.9" cy="106.3" r="9.9" fill="none" stroke="#8A8A8A" stroke-width="1.3"/>
<circle cx="546.4" cy="112.1" r="9.3" fill="#D55E00"/>
<circle cx="546.4" cy="112.1" r="9.9" fill="none" stroke="#8A8A8A" stroke-width="1.3"/>
<circle cx="567" cy="90.8" r="9.3" fill="#D55E00"/>
<circle cx="567" cy="90.8" r="9.9" fill="none" stroke="#8A8A8A" stroke-width="1.3"/>
<circle cx="595.8" cy="85.6" r="9.3" fill="#D55E00"/>
<circle cx="595.8" cy="85.6" r="9.9" fill="none" stroke="#8A8A8A" stroke-width="1.3"/>
<circle cx="848" cy="423.2" r="10.6" fill="#009E73"/>
<circle cx="848" cy="423.2" r="11.3" fill="none" stroke="#8A8A8A" stroke-width="1.3"/>
<circle cx="866.6" cy="438.6" r="9.3" fill="#009E73"/>
<circle cx="866.6" cy="438.6" r="9.9" fill="none" stroke="#8A8A8A" stroke-width="1.3"/>
<circle cx="698.7" cy="394.3" r="16" fill="#E69F00"/>
<circle cx="698.7" cy="394.3" r="16.7" fill="none" stroke="#8A8A8A" stroke-width="1.3"/>
<circle cx="698.7" cy="394.3" r="17" fill="none" stroke="#FFFFFF" stroke-width="2"/><circle cx="698.7" cy="394.3" r="19" fill="none" stroke="#1A1A1A" stroke-width="2"/>
<circle cx="626.4" cy="181" r="11.7" fill="#D55E00"/>
<circle cx="626.4" cy="181" r="12.4" fill="none" stroke="#8A8A8A" stroke-width="1.3"/>
<circle cx="626.4" cy="181" r="12.2" fill="none" stroke="#FFFFFF" stroke-width="1"/><circle cx="626.4" cy="181" r="13.2" fill="none" stroke="#1A1A1A" stroke-width="1"/>
<circle cx="785.3" cy="352.8" r="10.6" fill="#009E73"/>
<circle cx="785.3" cy="352.8" r="11.3" fill="none" stroke="#8A8A8A" stroke-width="1.3"/>
<circle cx="785.3" cy="352.8" r="11.1" fill="none" stroke="#FFFFFF" stroke-width="1"/><circle cx="785.3" cy="352.8" r="12.1" fill="none" stroke="#1A1A1A" stroke-width="1"/>
<circle cx="789.4" cy="393.1" r="12" fill="#009E73"/>
<circle cx="789.4" cy="393.1" r="12.7" fill="none" stroke="#8A8A8A" stroke-width="1.3"/>
<circle cx="789.4" cy="393.1" r="12.5" fill="none" stroke="#FFFFFF" stroke-width="1"/><circle cx="789.4" cy="393.1" r="13.5" fill="none" stroke="#1A1A1A" stroke-width="1"/>
<circle cx="587.1" cy="378.9" r="10.6" fill="#CC79A7"/>
<circle cx="587.1" cy="378.9" r="11.3" fill="none" stroke="#8A8A8A" stroke-width="1.3"/>
<circle cx="587.1" cy="378.9" r="11.1" fill="none" stroke="#FFFFFF" stroke-width="1"/><circle cx="587.1" cy="378.9" r="12.1" fill="none" stroke="#1A1A1A" stroke-width="1"/>
<circle cx="755.4" cy="392" r="12.2" fill="#009E73"/>
<circle cx="755.4" cy="392" r="12.9" fill="none" stroke="#8A8A8A" stroke-width="1.3"/>
<circle cx="755.4" cy="392" r="12.7" fill="none" stroke="#FFFFFF" stroke-width="1"/><circle cx="755.4" cy="392" r="13.7" fill="none" stroke="#1A1A1A" stroke-width="1"/>
<circle cx="642.6" cy="349.5" r="9.7" fill="#E69F00"/>
<circle cx="642.6" cy="349.5" r="10.3" fill="none" stroke="#8A8A8A" stroke-width="1.3"/>
<circle cx="642.6" cy="349.5" r="10.2" fill="none" stroke="#FFFFFF" stroke-width="1"/><circle cx="642.6" cy="349.5" r="11.2" fill="none" stroke="#1A1A1A" stroke-width="1"/>
<circle cx="651.4" cy="400" r="8.9" fill="#E69F00"/>
<circle cx="651.4" cy="400" r="9.5" fill="none" stroke="#8A8A8A" stroke-width="1.3"/>
<circle cx="651.4" cy="400" r="9.4" fill="none" stroke="#FFFFFF" stroke-width="1"/><circle cx="651.4" cy="400" r="10.4" fill="none" stroke="#1A1A1A" stroke-width="1"/>
<circle cx="630.5" cy="375.6" r="8.9" fill="#E69F00"/>
<circle cx="630.5" cy="375.6" r="9.5" fill="none" stroke="#8A8A8A" stroke-width="1.3"/>
<circle cx="630.5" cy="375.6" r="9.4" fill="none" stroke="#FFFFFF" stroke-width="1"/><circle cx="630.5" cy="375.6" r="10.4" fill="none" stroke="#1A1A1A" stroke-width="1"/>
<circle cx="605.3" cy="385.3" r="8.9" fill="#E69F00"/>
<circle cx="605.3" cy="385.3" r="9.5" fill="none" stroke="#8A8A8A" stroke-width="1.3"/>
<circle cx="605.3" cy="385.3" r="9.4" fill="none" stroke="#FFFFFF" stroke-width="1"/><circle cx="605.3" cy="385.3" r="10.4" fill="none" stroke="#1A1A1A" stroke-width="1"/>
<circle cx="635.2" cy="425.1" r="8.9" fill="#E69F00"/>
<circle cx="635.2" cy="425.1" r="9.5" fill="none" stroke="#8A8A8A" stroke-width="1.3"/>
<circle cx="635.2" cy="425.1" r="9.4" fill="none" stroke="#FFFFFF" stroke-width="1"/><circle cx="635.2" cy="425.1" r="10.4" fill="none" stroke="#1A1A1A" stroke-width="1"/>
<circle cx="606.8" cy="415.6" r="8.9" fill="#E69F00"/>
<circle cx="606.8" cy="415.6" r="9.5" fill="none" stroke="#8A8A8A" stroke-width="1.3"/>
<circle cx="606.8" cy="415.6" r="9.4" fill="none" stroke="#FFFFFF" stroke-width="1"/><circle cx="606.8" cy="415.6" r="10.4" fill="none" stroke="#1A1A1A" stroke-width="1"/>
<circle cx="557.8" cy="457.8" r="9.3" fill="#CC79A7"/>
<circle cx="557.8" cy="457.8" r="9.9" fill="none" stroke="#8A8A8A" stroke-width="1.3"/>
<circle cx="557.8" cy="457.8" r="9.8" fill="none" stroke="#FFFFFF" stroke-width="1"/><circle cx="557.8" cy="457.8" r="10.8" fill="none" stroke="#1A1A1A" stroke-width="1"/>
<circle cx="530.1" cy="404.4" r="9.3" fill="#CC79A7"/>
<circle cx="530.1" cy="404.4" r="9.9" fill="none" stroke="#8A8A8A" stroke-width="1.3"/>
<circle cx="530.1" cy="404.4" r="9.8" fill="none" stroke="#FFFFFF" stroke-width="1"/><circle cx="530.1" cy="404.4" r="10.8" fill="none" stroke="#1A1A1A" stroke-width="1"/>
<circle cx="820.2" cy="407.9" r="10.3" fill="#009E73"/>
<circle cx="820.2" cy="407.9" r="11" fill="none" stroke="#8A8A8A" stroke-width="1.3"/>
<circle cx="820.2" cy="407.9" r="10.8" fill="none" stroke="#FFFFFF" stroke-width="1"/><circle cx="820.2" cy="407.9" r="11.8" fill="none" stroke="#1A1A1A" stroke-width="1"/>
<circle cx="831.5" cy="385" r="10.3" fill="#009E73"/>
<circle cx="831.5" cy="385" r="11" fill="none" stroke="#8A8A8A" stroke-width="1.3"/>
<circle cx="831.5" cy="385" r="10.8" fill="none" stroke="#FFFFFF" stroke-width="1"/><circle cx="831.5" cy="385" r="11.8" fill="none" stroke="#1A1A1A" stroke-width="1"/>
<circle cx="793.3" cy="428.6" r="10.3" fill="#009E73"/>
<circle cx="793.3" cy="428.6" r="11" fill="none" stroke="#8A8A8A" stroke-width="1.3"/>
<circle cx="793.3" cy="428.6" r="10.8" fill="none" stroke="#FFFFFF" stroke-width="1"/><circle cx="793.3" cy="428.6" r="11.8" fill="none" stroke="#1A1A1A" stroke-width="1"/>
<circle cx="815.6" cy="446.3" r="10" fill="#009E73"/>
<circle cx="815.6" cy="446.3" r="10.7" fill="none" stroke="#8A8A8A" stroke-width="1.3"/>
<circle cx="815.6" cy="446.3" r="10.5" fill="none" stroke="#FFFFFF" stroke-width="1"/><circle cx="815.6" cy="446.3" r="11.5" fill="none" stroke="#1A1A1A" stroke-width="1"/>
</g>
<g font-family="Inter Variable, Inter, system-ui, sans-serif" font-size="12" fill="#1A1A1A" stroke="#F5F5F5" stroke-width="3" stroke-linejoin="round" paint-order="stroke">
<text x="718.7" y="398.3">Valjean</text>
<text x="642.2" y="185">Fantine</text>
<text x="800" y="356.8">Mme.Thenardier</text>
<text x="805.4" y="397.1">Thenardier</text>
<text x="601.7" y="382.9">Cosette</text>
<text x="862.6" y="427.2">Eponine</text>
</g></svg>