<svg xmlns="http://www.w3.org/2000/svg" viewBox="0 0 1200 800" width="1200" height="800" role="img" aria-label="ACC-233575 and its 8 counterparties, filtered to">
<rect width="1200" height="800" fill="#1E1E1E"/>
<g stroke="#808080" stroke-width="1" stroke-opacity="0.55" stroke-linecap="round">
<line x1="547.3" y1="366.6" x2="561.9" y2="680"/>
<line x1="547.3" y1="366.6" x2="703.2" y2="434"/>
<line x1="485.9" y1="231.3" x2="703.2" y2="434"/>
<line x1="926.8" y1="434.8" x2="547.3" y2="366.6"/>
<line x1="926.8" y1="434.8" x2="703.2" y2="434"/>
<line x1="309.3" y1="120" x2="547.3" y2="366.6"/>
<line x1="485.9" y1="231.3" x2="547.3" y2="366.6"/>
<line x1="547.3" y1="366.6" x2="303.7" y2="565.5"/>
<line x1="547.3" y1="366.6" x2="404.4" y2="170.5"/>
<line x1="309.3" y1="120" x2="273.2" y2="386.3"/>
<line x1="485.9" y1="231.3" x2="273.2" y2="386.3"/>
<line x1="547.3" y1="366.6" x2="273.2" y2="386.3"/>
<line x1="303.7" y1="565.5" x2="273.2" y2="386.3"/>
<line x1="404.4" y1="170.5" x2="273.2" y2="386.3"/>
</g>
<g>
<circle cx="561.9" cy="680" r="8" fill="#808080"/>
<circle cx="703.2" cy="434" r="8" fill="#808080"/>
<circle cx="926.8" cy="434.8" r="8" fill="#808080"/>
<circle cx="309.3" cy="120" r="8" fill="#D55E00"/>
<circle cx="485.9" cy="231.3" r="8" fill="#D55E00"/>
<circle cx="303.7" cy="565.5" r="8" fill="#D55E00"/>
<circle cx="404.4" cy="170.5" r="8" fill="#D55E00"/>
<circle cx="273.2" cy="386.3" r="8" fill="#808080"/>
<circle cx="547.3" cy="366.6" r="8" fill="#D55E00"/>
<circle cx="547.3" cy="366.6" r="9" fill="none" stroke="#1A1A1A" stroke-width="2"/><circle cx="547.3" cy="366.6" r="11" fill="none" stroke="#FFFFFF" stroke-width="2"/>
</g>
<g font-family="Inter Variable, Inter, system-ui, sans-serif" font-size="12" fill="#F0F0F0" stroke="#1E1E1E" stroke-width="3" stroke-linejoin="round" paint-order="stroke">
<text x="559.3" y="370.6">ACC-233575</text>
<text x="573.9" y="684">ACC-966851</text>
<text x="715.2" y="438">ACC-393859</text>
<text x="938.8" y="438.8">ACC-959129</text>
<text x="321.3" y="124">ACC-242954</text>
<text x="497.9" y="235.3">ACC-670564</text>
<text x="315.7" y="569.5">ACC-139419</text>
<text x="416.4" y="174.5">ACC-350110</text>
<text x="285.2" y="390.3">ACC-893168</text>
</g></svg>